<svg enable-background="new 0 0 50 20" viewBox="0 0 50 20" xml:space="preserve" xmlns="http://www.w3.org/2000/svg"><path d="m8.1 12.6h.5v1h-.5z"/><path d="m8.1 6.6h.5v1h-.5z"/><path d="m5.2 9.8h.9v.5h-.9z"/><path d="m10.5 9.8h.9v.5h-.9z"/><path d="m10 11.6.6.7-.3.4-.6-.7z"/><path d="m6.3 7.4.6.7-.3.4-.6-.7z"/><path d="m6.6 11.6.3.4-.6.7-.3-.4z"/><path d="m11.1 18.5c-.8 0-1.7-.4-2.6-1-1.5-1.1-2.9-2.8-4-4.9s-1.7-4.4-1.8-6.4.4-3.5 1.5-4.2 2.5-.5 4 .6 2.9 2.8 4 4.9 1.7 4.5 1.8 6.5-.5 3.5-1.5 4.2c-.4.2-.9.3-1.4.3zm-5.6-16.4c-.4 0-.8.1-1.1.3-.9.6-1.4 2-1.3 3.8.1 1.9.7 4.1 1.8 6.1s2.4 3.8 3.8 4.8 2.6 1.2 3.5.6 1.4-1.9 1.3-3.7c-.1-1.9-.7-4.1-1.8-6.1s-2.4-3.8-3.8-4.8c-.9-.7-1.7-1-2.4-1z"/><path d="m5.5 18.5c-.5 0-.9-.1-1.3-.4-1.1-.7-1.6-2.2-1.5-4.2s.7-4.2 1.8-6.4 2.5-3.9 4-4.9c1.5-1.1 2.9-1.3 4-.6s1.6 2.2 1.5 4.2-.7 4.2-1.8 6.4-2.5 3.9-4 4.9c-1 .7-1.9 1-2.7 1zm5.6-16.4c-.7 0-1.5.3-2.4.9-1.4 1-2.8 2.7-3.8 4.8s-1.7 4.3-1.8 6.2c-.1 1.8.4 3.2 1.3 3.7.9.6 2.1.4 3.5-.6s2.8-2.7 3.8-4.8 1.7-4.2 1.8-6.1c.1-1.8-.4-3.2-1.3-3.7-.3-.3-.7-.4-1.1-.4z"/><path d="m8.3 15c-2.2 0-4.3-.5-5.8-1.4-1.6-.9-2.5-2.2-2.5-3.5s.9-2.6 2.5-3.6c1.5-.9 3.6-1.4 5.8-1.4s4.3.5 5.8 1.4c1.6.9 2.5 2.2 2.5 3.6s-.9 2.6-2.5 3.6c-1.5.8-3.6 1.3-5.8 1.3zm0-9.4c-4.3 0-7.8 2-7.8 4.5s3.5 4.5 7.8 4.5 7.8-2 7.8-4.5-3.5-4.5-7.8-4.5z"/><ellipse cx="8.3" cy="10.1" fill="#ff8c1a" rx="1.7" ry="1.9"/><path d="m8.3 12.2c-1 0-1.9-.9-1.9-2.1s.9-2.1 1.9-2.1 1.9.9 1.9 2.1c0 1.1-.8 2.1-1.9 2.1zm0-3.7c-.8 0-1.4.7-1.4 1.6s.6 1.6 1.4 1.6 1.4-.7 1.4-1.6c.1-.9-.6-1.6-1.4-1.6z"/><g font-size="4.0874"><text font-family="'GoodTimesBk-Regular'" transform="translate(17.9331 6.5758)">Community </text><text fill="#ff8c1a" font-family="'GoodTimesHv-Regular'" transform="translate(17.9331 11.3453)">Science</text><text font-family="'GoodTimesBk-Regular'" transform="translate(17.9331 16.1153)">Museum</text></g></svg>